<svg width="257" height="187" viewBox="0 0 257 187" fill="none" xmlns="http://www.w3.org/2000/svg">
<rect x="68" width="120" height="120" rx="29.5" fill="url(#paint0_linear_802_969)"/>
<g clip-path="url(#clip0_802_969)">
<path d="M119.864 34.8137C114.171 32.096 106.215 30.7646 95.5627 30.7174C94.5581 30.7037 93.5732 30.9967 92.7393 31.5571C92.0549 32.0197 91.4947 32.6435 91.1078 33.3734C90.721 34.1034 90.5195 34.9172 90.521 35.7433V80.8189C90.521 83.866 92.6889 86.1647 95.5627 86.1647C106.76 86.1647 117.992 87.2108 124.719 93.5696C124.811 93.657 124.927 93.7154 125.052 93.7376C125.177 93.7598 125.306 93.7448 125.422 93.6944C125.539 93.6441 125.638 93.5606 125.707 93.4544C125.777 93.3482 125.813 93.2239 125.813 93.097V39.9846C125.813 39.6263 125.736 39.2721 125.588 38.9459C125.439 38.6198 125.223 38.3292 124.952 38.094C123.411 36.7766 121.7 35.6732 119.864 34.8137ZM163.928 31.5524C163.093 30.9933 162.108 30.702 161.104 30.7174C150.452 30.7646 142.496 32.0897 136.804 34.8137C134.967 35.6716 133.255 36.7728 131.713 38.0877C131.443 38.3233 131.227 38.6139 131.079 38.94C130.931 39.2661 130.854 39.6201 130.854 39.9783V93.0938C130.854 93.2158 130.89 93.335 130.958 93.4366C131.025 93.5382 131.121 93.6177 131.233 93.6649C131.346 93.7122 131.47 93.7253 131.589 93.7024C131.709 93.6796 131.82 93.6219 131.907 93.5365C135.951 89.519 143.049 86.16 161.111 86.1615C162.448 86.1615 163.73 85.6304 164.676 84.6849C165.621 83.7394 166.152 82.457 166.152 81.1199V35.7449C166.154 34.9171 165.952 34.1017 165.564 33.3705C165.176 32.6393 164.614 32.0149 163.928 31.5524Z" fill="white"/>
</g>
<g filter="url(#filter0_d_802_969)">
<path d="M20.4582 174.855C17.4882 174.855 14.8932 174.345 12.6732 173.325C10.4832 172.275 8.66817 170.91 7.22817 169.23C5.78817 167.52 4.70817 165.675 3.98817 163.695C3.29817 161.715 2.95317 159.81 2.95317 157.98V156.99C2.95317 154.95 3.31317 152.94 4.03317 150.96C4.78317 148.95 5.89317 147.135 7.36317 145.515C8.83317 143.895 10.6632 142.605 12.8532 141.645C15.0432 140.655 17.5782 140.16 20.4582 140.16C23.3382 140.16 25.8732 140.655 28.0632 141.645C30.2532 142.605 32.0832 143.895 33.5532 145.515C35.0232 147.135 36.1332 148.95 36.8832 150.96C37.6332 152.94 38.0082 154.95 38.0082 156.99V157.98C38.0082 159.81 37.6482 161.715 36.9282 163.695C36.2082 165.675 35.1282 167.52 33.6882 169.23C32.2482 170.91 30.4182 172.275 28.1982 173.325C26.0082 174.345 23.4282 174.855 20.4582 174.855ZM20.4582 167.97C22.0182 167.97 23.4132 167.7 24.6432 167.16C25.9032 166.62 26.9682 165.87 27.8382 164.91C28.7382 163.95 29.4132 162.84 29.8632 161.58C30.3132 160.32 30.5382 158.97 30.5382 157.53C30.5382 156 30.2982 154.605 29.8182 153.345C29.3682 152.055 28.6932 150.945 27.7932 150.015C26.9232 149.055 25.8732 148.32 24.6432 147.81C23.4132 147.3 22.0182 147.045 20.4582 147.045C18.8982 147.045 17.5032 147.3 16.2732 147.81C15.0432 148.32 13.9782 149.055 13.0782 150.015C12.2082 150.945 11.5482 152.055 11.0982 153.345C10.6482 154.605 10.4232 156 10.4232 157.53C10.4232 158.97 10.6482 160.32 11.0982 161.58C11.5482 162.84 12.2082 163.95 13.0782 164.91C13.9782 165.87 15.0432 166.62 16.2732 167.16C17.5032 167.7 18.8982 167.97 20.4582 167.97ZM44.0948 183V149.34H49.8098V160.005L49.0448 159.96C49.1648 157.5 49.6748 155.43 50.5748 153.75C51.4748 152.04 52.6898 150.765 54.2198 149.925C55.7498 149.055 57.4748 148.62 59.3948 148.62C61.1048 148.62 62.6498 148.935 64.0298 149.565C65.4398 150.195 66.6398 151.08 67.6298 152.22C68.6498 153.33 69.4148 154.65 69.9248 156.18C70.4648 157.68 70.7348 159.33 70.7348 161.13V162.165C70.7348 163.935 70.4798 165.6 69.9698 167.16C69.4598 168.69 68.7098 170.025 67.7198 171.165C66.7598 172.305 65.5748 173.205 64.1648 173.865C62.7848 174.495 61.1948 174.81 59.3948 174.81C57.5348 174.81 55.8548 174.435 54.3548 173.685C52.8848 172.905 51.6998 171.735 50.7998 170.175C49.8998 168.585 49.4048 166.575 49.3148 164.145L51.2948 166.845V183H44.0948ZM57.3698 168.78C58.5998 168.78 59.6648 168.48 60.5648 167.88C61.4948 167.28 62.2148 166.44 62.7248 165.36C63.2348 164.28 63.4898 163.035 63.4898 161.625C63.4898 160.215 63.2348 158.985 62.7248 157.935C62.2148 156.885 61.5098 156.075 60.6098 155.505C59.7098 154.905 58.6298 154.605 57.3698 154.605C56.2898 154.605 55.2698 154.86 54.3098 155.37C53.3498 155.88 52.5698 156.615 51.9698 157.575C51.3998 158.505 51.1148 159.645 51.1148 160.995V162.66C51.1148 163.95 51.4148 165.06 52.0148 165.99C52.6448 166.89 53.4398 167.58 54.3998 168.06C55.3598 168.54 56.3498 168.78 57.3698 168.78ZM87.8404 174.315C85.3504 174.315 83.3404 174.015 81.8104 173.415C80.2804 172.785 79.1554 171.75 78.4354 170.31C77.7454 168.84 77.4004 166.86 77.4004 164.37V142.68H84.1054V164.64C84.1054 165.81 84.4054 166.71 85.0054 167.34C85.6354 167.94 86.5204 168.24 87.6604 168.24H91.3054V174.315H87.8404ZM73.6654 154.605V149.34H91.3054V154.605H73.6654ZM98.2171 174V149.34H105.417V174H98.2171ZM94.9321 154.65V149.34H105.417V154.65H94.9321ZM101.007 146.91C99.6571 146.91 98.6521 146.565 97.9921 145.875C97.3621 145.155 97.0471 144.255 97.0471 143.175C97.0471 142.065 97.3621 141.165 97.9921 140.475C98.6521 139.755 99.6571 139.395 101.007 139.395C102.357 139.395 103.347 139.755 103.977 140.475C104.637 141.165 104.967 142.065 104.967 143.175C104.967 144.255 104.637 145.155 103.977 145.875C103.347 146.565 102.357 146.91 101.007 146.91ZM128.951 174.855C126.011 174.855 123.446 174.375 121.256 173.415C119.066 172.425 117.251 171.105 115.811 169.455C114.401 167.805 113.351 165.975 112.661 163.965C111.971 161.955 111.626 159.945 111.626 157.935V156.945C111.626 154.875 111.971 152.85 112.661 150.87C113.351 148.89 114.386 147.09 115.766 145.47C117.176 143.85 118.916 142.56 120.986 141.6C123.086 140.64 125.501 140.16 128.231 140.16C131.201 140.16 133.826 140.715 136.106 141.825C138.386 142.905 140.216 144.42 141.596 146.37C142.976 148.29 143.771 150.525 143.981 153.075H136.601C136.421 151.875 135.941 150.825 135.161 149.925C134.411 149.025 133.436 148.32 132.236 147.81C131.066 147.3 129.731 147.045 128.231 147.045C126.791 147.045 125.501 147.3 124.361 147.81C123.251 148.32 122.291 149.04 121.481 149.97C120.701 150.9 120.101 152.01 119.681 153.3C119.291 154.56 119.096 155.955 119.096 157.485C119.096 159.075 119.306 160.53 119.726 161.85C120.176 163.14 120.821 164.265 121.661 165.225C122.501 166.155 123.536 166.875 124.766 167.385C126.026 167.895 127.421 168.15 128.951 168.15C130.991 168.15 132.761 167.73 134.261 166.89C135.761 166.05 136.841 164.94 137.501 163.56L136.601 168.6V160.77H143.396V167.79C141.986 170.07 140.036 171.825 137.546 173.055C135.086 174.255 132.221 174.855 128.951 174.855ZM128.006 162.21V156.9H146.096V162.21H128.006ZM151.362 174V149.34H157.077V159.915H156.942C156.942 156.435 157.677 153.75 159.147 151.86C160.647 149.97 162.807 149.025 165.627 149.025H166.572V155.235H164.772C162.792 155.235 161.262 155.775 160.182 156.855C159.102 157.905 158.562 159.435 158.562 161.445V174H151.362ZM185.921 174V166.71H184.706V158.79C184.706 157.53 184.406 156.585 183.806 155.955C183.206 155.325 182.246 155.01 180.926 155.01C180.266 155.01 179.396 155.025 178.316 155.055C177.236 155.085 176.126 155.13 174.986 155.19C173.846 155.25 172.811 155.31 171.881 155.37V149.295C172.571 149.235 173.381 149.175 174.311 149.115C175.241 149.055 176.201 149.01 177.191 148.98C178.181 148.95 179.111 148.935 179.981 148.935C182.501 148.935 184.616 149.295 186.326 150.015C188.066 150.735 189.386 151.83 190.286 153.3C191.186 154.74 191.636 156.6 191.636 158.88V174H185.921ZM178.046 174.63C176.276 174.63 174.716 174.315 173.366 173.685C172.046 173.055 171.011 172.155 170.261 170.985C169.511 169.785 169.136 168.36 169.136 166.71C169.136 164.91 169.601 163.44 170.531 162.3C171.461 161.13 172.766 160.275 174.446 159.735C176.126 159.165 178.061 158.88 180.251 158.88H185.516V162.885H180.206C178.946 162.885 177.971 163.2 177.281 163.83C176.621 164.43 176.291 165.255 176.291 166.305C176.291 167.295 176.621 168.105 177.281 168.735C177.971 169.335 178.946 169.635 180.206 169.635C181.016 169.635 181.736 169.5 182.366 169.23C183.026 168.93 183.566 168.435 183.986 167.745C184.406 167.055 184.646 166.095 184.706 164.865L186.416 166.665C186.266 168.375 185.846 169.815 185.156 170.985C184.496 172.155 183.566 173.055 182.366 173.685C181.196 174.315 179.756 174.63 178.046 174.63ZM208.815 174.81C207.075 174.81 205.485 174.495 204.045 173.865C202.635 173.235 201.405 172.365 200.355 171.255C199.305 170.115 198.495 168.78 197.925 167.25C197.385 165.72 197.115 164.07 197.115 162.3V161.265C197.115 159.495 197.37 157.845 197.88 156.315C198.42 154.785 199.185 153.45 200.175 152.31C201.195 151.14 202.41 150.24 203.82 149.61C205.23 148.95 206.805 148.62 208.545 148.62C210.525 148.62 212.235 149.055 213.675 149.925C215.115 150.765 216.24 152.025 217.05 153.705C217.86 155.355 218.31 157.395 218.4 159.825L216.51 158.07V141.15H223.755V174H218.04V163.785H219.03C218.94 166.125 218.445 168.12 217.545 169.77C216.675 171.42 215.49 172.68 213.99 173.55C212.49 174.39 210.765 174.81 208.815 174.81ZM210.615 168.78C211.725 168.78 212.73 168.54 213.63 168.06C214.56 167.55 215.295 166.815 215.835 165.855C216.405 164.895 216.69 163.74 216.69 162.39V160.725C216.69 159.405 216.405 158.295 215.835 157.395C215.265 156.495 214.515 155.805 213.585 155.325C212.655 154.845 211.65 154.605 210.57 154.605C209.37 154.605 208.29 154.92 207.33 155.55C206.4 156.15 205.665 156.99 205.125 158.07C204.585 159.12 204.315 160.35 204.315 161.76C204.315 163.2 204.585 164.445 205.125 165.495C205.665 166.545 206.415 167.355 207.375 167.925C208.335 168.495 209.415 168.78 210.615 168.78ZM242.481 174.855C240.381 174.855 238.521 174.495 236.901 173.775C235.311 173.055 233.976 172.095 232.896 170.895C231.846 169.665 231.036 168.3 230.466 166.8C229.926 165.27 229.656 163.71 229.656 162.12V161.22C229.656 159.57 229.926 157.995 230.466 156.495C231.036 154.965 231.846 153.6 232.896 152.4C233.946 151.2 235.251 150.255 236.811 149.565C238.401 148.845 240.201 148.485 242.211 148.485C244.851 148.485 247.071 149.085 248.871 150.285C250.701 151.455 252.096 153 253.056 154.92C254.016 156.81 254.496 158.88 254.496 161.13V163.56H232.671V159.465H250.131L247.791 161.355C247.791 159.885 247.581 158.625 247.161 157.575C246.741 156.525 246.111 155.73 245.271 155.19C244.461 154.62 243.441 154.335 242.211 154.335C240.951 154.335 239.886 154.62 239.016 155.19C238.146 155.76 237.486 156.6 237.036 157.71C236.586 158.79 236.361 160.125 236.361 161.715C236.361 163.185 236.571 164.475 236.991 165.585C237.411 166.665 238.071 167.505 238.971 168.105C239.871 168.705 241.041 169.005 242.481 169.005C243.801 169.005 244.881 168.75 245.721 168.24C246.561 167.73 247.131 167.1 247.431 166.35H254.046C253.686 168 252.981 169.47 251.931 170.76C250.881 172.05 249.561 173.055 247.971 173.775C246.381 174.495 244.551 174.855 242.481 174.855Z" fill="url(#paint1_linear_802_969)"/>
</g>
<defs>
<filter id="filter0_d_802_969" x="0.953125" y="139.395" width="255.542" height="47.605" filterUnits="userSpaceOnUse" color-interpolation-filters="sRGB">
<feFlood flood-opacity="0" result="BackgroundImageFix"/>
<feColorMatrix in="SourceAlpha" type="matrix" values="0 0 0 0 0 0 0 0 0 0 0 0 0 0 0 0 0 0 127 0" result="hardAlpha"/>
<feOffset dy="2"/>
<feGaussianBlur stdDeviation="1"/>
<feComposite in2="hardAlpha" operator="out"/>
<feColorMatrix type="matrix" values="0 0 0 0 0 0 0 0 0 0 0 0 0 0 0 0 0 0 0.25 0"/>
<feBlend mode="normal" in2="BackgroundImageFix" result="effect1_dropShadow_802_969"/>
<feBlend mode="normal" in="SourceGraphic" in2="effect1_dropShadow_802_969" result="shape"/>
</filter>
<linearGradient id="paint0_linear_802_969" x1="57" y1="81" x2="187.738" y2="27.3607" gradientUnits="userSpaceOnUse">
<stop stop-color="#1C69B2"/>
<stop offset="0.677451" stop-color="#611EE8"/>
</linearGradient>
<linearGradient id="paint1_linear_802_969" x1="18.0632" y1="150.52" x2="254.386" y2="183.402" gradientUnits="userSpaceOnUse">
<stop stop-color="#3E59DF"/>
<stop offset="0.996283" stop-color="#8326FE"/>
</linearGradient>
<clipPath id="clip0_802_969">
<rect width="80.6667" height="66.6377" fill="white" transform="translate(88 30.1694)"/>
</clipPath>
</defs>
</svg>

